<svg xmlns="http://www.w3.org/2000/svg" viewBox="0 0 120 120" width="120" height="120">
  <defs>
    <linearGradient id="g" x1="0" x2="1">
      <stop offset="0" stop-color="#e6f0ff"/>
      <stop offset="1" stop-color="#dfe9ff"/>
    </linearGradient>
  </defs>
  <rect width="120" height="120" rx="12" fill="url(#g)"/>
  <!-- hair -->
  <path d="M18 42c8-18 40-26 66-6 0 0-2 18-12 22-10 4-32 2-44-6-8-6-10-12-10-12z" fill="#2b2b2b"/>
  <!-- face -->
  <ellipse cx="60" cy="60" rx="28" ry="30" fill="#ffdca8" />
  <!-- glasses -->
  <rect x="34" y="56" width="18" height="12" rx="3" fill="#111" />
  <rect x="68" y="56" width="18" height="12" rx="3" fill="#111" />
  <rect x="52" y="62" width="16" height="2" fill="#111" />
  <!-- eyes (small to look nerdy) -->
  <circle cx="43" cy="62" r="1.4" fill="#fff"/>
  <circle cx="77" cy="62" r="1.4" fill="#fff"/>
  <!-- nose & mouth -->
  <path d="M60 68 q2 4 6 0" stroke="#b36" stroke-width="1.5" fill="none" stroke-linecap="round"/>
  <!-- sweater -->
  <rect x="28" y="86" width="64" height="20" rx="6" fill="#2a6f9e"/>
  <rect x="34" y="82" width="52" height="8" rx="4" fill="#2f86b3"/>
  <!-- subtle nerdy detail -->
  <text x="60" y="104" font-size="6" text-anchor="middle" fill="#fff" opacity="0.85">Leandro</text>
</svg>